<?xml version="1.0" encoding="UTF-8" standalone="no"?>
<!-- Generator: Adobe Illustrator 15.1.0, SVG Export Plug-In . SVG Version: 6.00 Build 0)  -->

<svg
   version="1.1"
   id="circle_pieces"
   x="0px"
   y="0px"
   width="511.875px"
   height="511.824px"
   viewBox="0 0 511.875 511.824"
   enable-background="new 0 0 511.875 511.824"
   xml:space="preserve"
   sodipodi:docname="racket-logo.svg"
   inkscape:version="1.2.2 (b0a8486541, 2022-12-01)"
   xmlns:inkscape="http://www.inkscape.org/namespaces/inkscape"
   xmlns:sodipodi="http://sodipodi.sourceforge.net/DTD/sodipodi-0.dtd"
   xmlns="http://www.w3.org/2000/svg"
   xmlns:svg="http://www.w3.org/2000/svg"><defs
   id="defs71" /><sodipodi:namedview
   id="namedview69"
   pagecolor="#ffffff"
   bordercolor="#000000"
   borderopacity="0.25"
   inkscape:showpageshadow="2"
   inkscape:pageopacity="0.0"
   inkscape:pagecheckerboard="0"
   inkscape:deskcolor="#d1d1d1"
   showgrid="false"
   inkscape:zoom="1.5747601"
   inkscape:cx="255.912"
   inkscape:cy="336.5592"
   inkscape:window-width="1920"
   inkscape:window-height="1008"
   inkscape:window-x="0"
   inkscape:window-y="0"
   inkscape:window-maximized="1"
   inkscape:current-layer="circle_pieces" />



<g
   id="g258"
   transform="matrix(0.99997422,0,0,0.99997422,-0.5890205,0.53480583)"><circle
     id="circle"
     fill="#ffffff"
     cx="256.25201"
     cy="255.98599"
     r="253.093" /><path
     id="blue-piece"
     fill="#3e5ba9"
     d="m 455.398,412.197 c 33.792,-43.021 53.946,-97.262 53.946,-156.211 0,-139.779 -113.313,-253.093 -253.093,-253.093 -30.406,0 -59.558,5.367 -86.566,15.197 102.75,53.899 238.664,229.749 285.713,394.107 z" /><path
     id="left-red-piece"
     fill="#9f1d20"
     d="M 220.003,164.337 C 180.522,121.804 136.308,88.025 89.48,65.622 36.573,112.011 3.159,180.092 3.159,255.986 3.159,319.8 26.785,378.09 65.756,422.609 100.111,319.392 164.697,219.907 220.003,164.337 Z" /><path
     id="bottom-red-piece"
     fill="#9f1d20"
     d="m 266.638,221.727 c -54.792,59.051 -109.392,162.422 -129.152,257.794 35.419,18.857 75.84,29.559 118.766,29.559 44.132,0 85.618,-11.306 121.74,-31.163 -20.821,-96.205 -60.124,-184.313 -111.354,-256.19 z" /></g>
</svg>
